<?xml version="1.0" encoding="utf-8"?>
<!-- Generator: Adobe Illustrator 24.2.1, SVG Export Plug-In . SVG Version: 6.00 Build 0)  -->
<svg version="1.1" id="Layer_1" xmlns="http://www.w3.org/2000/svg" xmlns:xlink="http://www.w3.org/1999/xlink" x="0px" y="0px"
	 viewBox="0 0 97.8 91.7" style="enable-background:new 0 0 97.8 91.7;" xml:space="preserve">
<style type="text/css">
	.st0{display:none;fill:#FFFFFF;}
</style>
<g>
	<path class="st0" d="M67.2-40.5C82.5,5,97.7,50.5,113,96c-28.8,9.7-57.6,19.3-86.5,29C11.3,79.5-4,34-19.2-11.6
		C9.6-21.2,38.4-30.9,67.2-40.5z M18.8,40.3c0,0-0.1,0-0.1,0c0.3,0.7,0.6,1.4,0.9,2.1c1.4,3.1,3,6,5.5,8.3c3.4,3.1,7.3,3.6,11.3,1.4
		c1.3-0.7,2.5-1.6,3.6-2.5c3.5-2.9,6.2-6.6,8.7-10.3c0.7-1,1.3-2.1,2-3.2c-2.7,0-5.2-0.1-7.7-0.1c-0.3,0-0.7,0.4-0.9,0.7
		c-1.4,2.3-2.5,4.7-4.1,6.8c-1.4,1.9-3.2,3.7-5.1,5.1c-2.9,2.1-6,1.8-8.7-0.6c-1.2-1-2.1-2.3-3-3.5C20.3,43.1,19.6,41.7,18.8,40.3z
		 M67.2,36.4c-2.4-0.1-4.4-0.1-6.5-0.1c-0.4,0-0.9,0.3-1.1,0.7c-1.5,2.1-2.9,4.3-4.4,6.4c-2.2,3-4.7,5.8-7.8,7.9
		c-0.9,0.6-1.9,1.1-2.8,1.7c2.6,1.2,5.4,1,8.1-0.5C59.3,48.8,63.1,42.6,67.2,36.4z M36.1,53c1.3,0.3,2.3,0.5,3.3,0.6
		c2.2,0.2,4.1-0.6,5.9-1.7c3.2-1.9,5.8-4.6,8-7.5c2-2.6,3.8-5.3,5.8-8.2c-2.3,0-4.2,0-6.1-0.1c-0.9-0.1-1.4,0.3-1.9,1
		C47.2,43.3,43.2,49.3,36.1,53z M38.8,56.2c-0.8-0.4-1.7-0.8-2.6-1.2c-0.2,0.4-0.5,0.9-0.8,1.4c-0.6-0.2-1.1-0.5-1.4-0.6
		c-0.5,0.9-1,1.7-1.5,2.5c0.9,0.5,1.8,0.9,2.6,1.4c0.3-0.5,0.6-1.1,0.9-1.6c0.6,0.3,1.1,0.5,1.6,0.7C37.9,57.9,38.3,57.1,38.8,56.2z
		 M28.5,46.2c0.8,0.4,1.6,0.9,2.3,1.2c0.5-0.9,1-1.7,1.4-2.4c-0.9-0.5-1.7-0.9-2.5-1.3C29.3,44.5,28.9,45.3,28.5,46.2z M69.3,33.7
		c-0.5,0.9-0.9,1.7-1.3,2.4c0.8,0.4,1.6,0.9,2.4,1.3c0.5-0.9,0.9-1.8,1.3-2.7C70.9,34.4,70,34,69.3,33.7z"/>
	<path d="M18.8,40.3c0.8,1.4,1.5,2.8,2.4,4.1c0.9,1.3,1.9,2.5,3,3.5c2.7,2.4,5.8,2.7,8.7,0.6c1.9-1.4,3.7-3.2,5.1-5.1
		c1.6-2.1,2.7-4.5,4.1-6.8c0.2-0.3,0.6-0.7,0.9-0.7c2.5,0,5,0.1,7.7,0.1c-0.7,1.2-1.4,2.2-2,3.2c-2.5,3.8-5.2,7.4-8.7,10.3
		c-1.1,0.9-2.4,1.8-3.6,2.5c-4,2.2-7.9,1.7-11.3-1.4c-2.5-2.3-4.2-5.2-5.5-8.3c-0.3-0.7-0.6-1.4-0.9-2.1
		C18.8,40.3,18.8,40.3,18.8,40.3z"/>
	<path d="M67.2,36.4c-4.1,6.3-7.9,12.5-14.5,16.1C50,54,47.1,54.2,44.6,53c1-0.6,1.9-1.1,2.8-1.7c3.1-2.1,5.6-4.9,7.8-7.9
		c1.5-2.1,2.9-4.3,4.4-6.4c0.2-0.3,0.7-0.7,1.1-0.7C62.8,36.2,64.8,36.3,67.2,36.4z"/>
	<path d="M36.1,53c7.1-3.7,11.2-9.7,15.1-15.9c0.5-0.8,1-1.1,1.9-1c1.9,0.1,3.8,0.1,6.1,0.1c-2.1,2.9-3.9,5.6-5.8,8.2
		c-2.2,2.9-4.8,5.6-8,7.5c-1.8,1.1-3.8,1.8-5.9,1.7C38.4,53.5,37.4,53.2,36.1,53z"/>
	<path d="M38.8,56.2c-0.4,0.9-0.8,1.7-1.3,2.6c-0.5-0.2-1-0.4-1.6-0.7c-0.3,0.5-0.6,1-0.9,1.6c-0.9-0.5-1.7-0.9-2.6-1.4
		c0.5-0.8,0.9-1.6,1.5-2.5c0.4,0.2,0.9,0.4,1.4,0.6c0.3-0.5,0.6-1,0.8-1.4C37.1,55.4,37.9,55.8,38.8,56.2z"/>
	<path d="M28.5,46.2c0.4-0.9,0.8-1.7,1.2-2.5c0.8,0.4,1.6,0.8,2.5,1.3c-0.4,0.7-0.9,1.5-1.4,2.4C30.1,47,29.3,46.6,28.5,46.2z"/>
	<path d="M69.3,33.7c0.7,0.3,1.6,0.7,2.5,1.1c-0.5,0.9-0.9,1.8-1.3,2.7c-0.8-0.5-1.6-0.9-2.4-1.3C68.4,35.4,68.8,34.5,69.3,33.7z"/>
</g>
</svg>
